<svg width="800" height="500" viewBox="0 0 800 500" fill="none" xmlns="http://www.w3.org/2000/svg">
  <!-- Background -->
  <rect width="800" height="500" fill="#F1F5F9"/>
  
  <!-- Sidebar -->
  <rect width="220" height="500" fill="white"/>
  <rect x="20" y="20" width="30" height="30" rx="6" fill="#DC2626"/>
  <path d="M28 35L32 35M28 39L32 39M28 31L32 31" stroke="white" stroke-width="2" stroke-linecap="round"/>
  <text x="60" y="40" fill="#1E293B" font-family="sans-serif" font-size="16" font-weight="900">HANZI MASTER</text>
  
  <rect x="20" y="80" width="180" height="80" rx="8" stroke="#E2E8F0" stroke-width="2"/>
  <text x="30" y="105" fill="#94A3B8" font-family="sans-serif" font-size="10">INPUT TEXT</text>
  <text x="30" y="130" fill="#1E293B" font-family="serif" font-size="18">学而时习之</text>
  
  <rect x="20" y="170" width="180" height="35" rx="8" fill="#DC2626"/>
  <text x="65" y="192" fill="white" font-family="sans-serif" font-size="12" font-weight="bold">Generate Sheet</text>
  
  <rect x="20" y="440" width="180" height="40" rx="8" fill="#0F172A"/>
  <text x="60" y="465" fill="white" font-family="sans-serif" font-size="12" font-weight="bold">PRINT WORKBOOK</text>

  <!-- Worksheet Area -->
  <rect x="260" y="40" width="500" height="420" fill="white" filter="url(#shadow)"/>
  <defs>
    <filter id="shadow" x="250" y="30" width="520" height="440" filterUnits="userSpaceOnUse" color-interpolation-filters="sRGB">
      <feFlood flood-opacity="0" result="BackgroundImageFix"/>
      <feColorMatrix in="SourceAlpha" type="matrix" values="0 0 0 0 0 0 0 0 0 0 0 0 0 0 0 0 0 0 127 0" result="hardAlpha"/>
      <feOffset dy="4"/>
      <feGaussianBlur stdDeviation="10"/>
      <feColorMatrix type="matrix" values="0 0 0 0 0 0 0 0 0 0 0 0 0 0 0 0 0 0 0.1 0"/>
      <feBlend mode="normal" in2="BackgroundImageFix" result="effect1_dropShadow"/>
      <feBlend mode="normal" in="SourceGraphic" in2="effect1_dropShadow" result="shape"/>
    </filter>
  </defs>
  
  <text x="280" y="80" fill="#0F172A" font-family="serif" font-size="20" font-weight="bold">汉字笔顺同步练习</text>
  <line x1="280" y1="100" x2="740" y2="100" stroke="#0F172A" stroke-width="3"/>
  
  <!-- Row 1: 学 -->
  <text x="280" y="130" fill="#0F172A" font-family="serif" font-size="14" font-weight="bold">学</text>
  <text x="300" y="130" fill="#64748B" font-family="sans-serif" font-size="12">xué</text>
  
  <!-- Grids -->
  <g transform="translate(280, 140)">
    <!-- Reference -->
    <rect width="40" height="40" fill="white" stroke="#F87171" stroke-width="0.5" stroke-dasharray="2 2"/>
    <path d="M0 20 L40 20 M20 0 L20 40 M0 0 L40 40 M40 0 L0 40" stroke="#F87171" stroke-width="0.2" stroke-dasharray="1 1"/>
    <text x="8" y="30" fill="black" font-family="serif" font-size="30">学</text>
    
    <!-- Steps -->
    <g transform="translate(45, 0)">
      <rect width="40" height="40" stroke="#F87171" stroke-width="0.5" stroke-dasharray="2 2"/>
      <text x="8" y="30" fill="#EF4444" font-family="serif" font-size="30" opacity="0.3">丶</text>
    </g>
    <g transform="translate(90, 0)">
      <rect width="40" height="40" stroke="#F87171" stroke-width="0.5" stroke-dasharray="2 2"/>
      <text x="8" y="30" fill="#EF4444" font-family="serif" font-size="30">学</text>
    </g>
    <g transform="translate(135, 0)">
      <rect width="40" height="40" stroke="#F87171" stroke-width="0.5" stroke-dasharray="2 2"/>
    </g>
    <g transform="translate(180, 0)">
      <rect width="40" height="40" stroke="#F87171" stroke-width="0.5" stroke-dasharray="2 2"/>
    </g>
  </g>
  
  <!-- Row 2: 而 -->
  <text x="280" y="210" fill="#0F172A" font-family="serif" font-size="14" font-weight="bold">而</text>
  <text x="300" y="210" fill="#64748B" font-family="sans-serif" font-size="12">ér</text>
  <g transform="translate(280, 220)">
    <rect width="40" height="40" fill="white" stroke="#F87171" stroke-width="0.5" stroke-dasharray="2 2"/>
    <text x="8" y="30" fill="black" font-family="serif" font-size="30">而</text>
    <g transform="translate(45, 0)"> <rect width="40" height="40" stroke="#F87171" stroke-width="0.5" stroke-dasharray="2 2"/> </g>
    <g transform="translate(90, 0)"> <rect width="40" height="40" stroke="#F87171" stroke-width="0.5" stroke-dasharray="2 2"/> </g>
    <g transform="translate(135, 0)"> <rect width="40" height="40" stroke="#F87171" stroke-width="0.5" stroke-dasharray="2 2"/> </g>
    <g transform="translate(180, 0)"> <rect width="40" height="40" stroke="#F87171" stroke-width="0.5" stroke-dasharray="2 2"/> </g>
  </g>
  
  <!-- Footer decor -->
  <rect x="700" y="440" width="10" height="10" fill="#DC2626"/>
  <rect x="715" y="440" width="10" height="10" fill="#0F172A"/>
</svg>